<?xml version="1.0" encoding="UTF-8"?>
<svg id="Capa_1" xmlns="http://www.w3.org/2000/svg" version="1.1" viewBox="0 0 619.5 121">
  <!-- Generator: Adobe Illustrator 29.0.0, SVG Export Plug-In . SVG Version: 2.1.0 Build 186)  -->
  <defs>
    <style>
      .st0 {
        fill: #0f4432;
      }

      .st1 {
        fill: #1c201f;
      }

      .st2 {
        fill: #1fae86;
      }
    </style>
  </defs>
  <g>
    <path class="st1" d="M96.5,39.6h17.2c9.9,0,16.1,4.9,16.1,12.7s-2.2,7.7-6.2,9.3c5.8,1.8,8.8,5.8,8.8,11.2,0,8.4-6.1,13.2-16.4,13.2h-19.5v-46.6h0ZM104.2,45.7v13.7h9.1c5.5,0,8.5-2.7,8.5-6.8s-3.1-7-8.4-7h-9.2ZM104.2,65.4v14.7h11.6c5.4,0,8.6-3,8.6-7.4s-3.5-7.3-9.5-7.3h-10.8Z"/>
    <path class="st1" d="M136.6,39.6h17.4c10,0,16.5,5.3,16.5,13.4s-2.4,8.9-6.6,11.1c2.7,1.5,4.2,3.9,5.3,8.1l3.5,13.9h-8.1l-2.8-12.4c-1.2-5.3-3.2-6.4-8.4-6.4h-9.1v18.8h-7.7v-46.6h0ZM144.2,45.9v15.4h9.5c5.7,0,8.9-3,8.9-7.7s-3.2-7.7-8.8-7.7c0,0-9.6,0-9.6,0Z"/>
    <path class="st1" d="M205.3,75.7h-21.2l-3.9,10.5h-7.7l18-46.6h8.9l18,46.6h-8l-3.9-10.5h-.1ZM186.4,69.8h16.6l-6.9-18.1-1.4-4.5-1.4,4.5-6.9,18.1h-.1Z"/>
    <path class="st1" d="M220,39.6h8l19.5,30.4,3,5.5v-36c-.1,0,7.4,0,7.4,0v46.6h-8l-19.5-30.3-3-5.7v36c.1,0-7.4,0-7.4,0v-46.6h0Z"/>
    <path class="st1" d="M264.5,39.6h15.9c14.6,0,23.7,8.8,23.7,23.4s-9.1,23.2-23.7,23.2h-15.9v-46.6h0ZM296.2,63c0-10.8-5.9-17.2-15.8-17.2h-8.2v34.1h8.2c10,0,15.8-6.4,15.8-17h0Z"/>
    <path class="st1" d="M309.9,39.6h30.9v3.8h-26.4v16.8h23.8v3.8h-23.8v18.5h26.4v3.8h-30.9v-46.6h0Z"/>
    <path class="st1" d="M346.5,39.6h4.9l23.8,35.8,2.4,4.1v-39.9h4.7v46.6h-4.9l-23.8-35.7-2.6-4.3v40h-4.6v-46.6h0Z"/>
    <path class="st1" d="M389.6,39.6h17.2c9.9,0,16.1,4.9,16.1,12.7s-2.2,7.7-6.2,9.3c5.8,1.8,8.8,5.8,8.8,11.2,0,8.4-6.1,13.2-16.4,13.2h-19.5v-46.6h0ZM397.3,45.7v13.7h9.1c5.4,0,8.5-2.7,8.5-6.8s-3.1-7-8.4-7h-9.2ZM397.3,65.4v14.7h11.6c5.4,0,8.6-3,8.6-7.4s-3.5-7.3-9.5-7.3h-10.8Z"/>
    <path class="st1" d="M448.3,87.1c-11.8,0-18.9-7-18.9-18.7v-28.8h7.7v28.8c0,7.8,4.2,12.4,11.4,12.4s11.4-4.7,11.4-12.4v-28.8h7.7v28.8c0,11.6-7.3,18.7-18.9,18.7h-.3Z"/>
    <path class="st1" d="M473.3,39.6h17.4c10.1,0,16.5,5.3,16.5,13.4s-2.4,8.9-6.6,11.1c2.7,1.5,4.2,3.9,5.3,8.1l3.5,13.9h-8.1l-2.8-12.4c-1.2-5.3-3.2-6.4-8.4-6.4h-9.1v18.8h-7.7v-46.6h0ZM480.9,45.9v15.4h9.5c5.7,0,8.9-3,8.9-7.7s-3.2-7.7-8.8-7.7c0,0-9.6,0-9.6,0Z"/>
    <path class="st1" d="M546.7,86.3l-.7-6.6c-2.8,5.1-7.8,7.4-13.8,7.4-12.7,0-20.9-9.1-20.9-24.1s8.1-24.2,21.6-24.2,17.2,5.1,19.3,14.7h-8c-1.6-5.3-6.1-8.2-11.6-8.2-8.5,0-13.5,6.8-13.5,17.8s5.1,17.7,13.8,17.7,11.5-3.8,12-12.7h-11.1v-5.9h18.4v24.2h-5.5,0Z"/>
    <path class="st1" d="M556.3,63c0-15,8.5-24.2,22.4-24.2s22.3,9.3,22.3,24.2-8.5,24.1-22.3,24.1-22.4-9.2-22.4-24.1ZM593.2,63c0-11.1-5.4-17.8-14.5-17.8s-14.6,6.8-14.6,17.8,5.4,17.7,14.6,17.7,14.5-6.8,14.5-17.7h0Z"/>
  </g>
  <g>
    <g>
      <path class="st0" d="M45.2,41.9c0-2.6-.8-4.6-2.4-6.1s-3.6-2.2-5.9-2.2h-20.2v16.8h19.6c2.5,0,4.6-.8,6.3-2.2s2.6-3.6,2.6-6.2h0Z"/>
      <g>
        <path class="st0" d="M52.3,56.1c-1.1-.4-2.2-.8-3.4-1.2.8-.3,1.6-.7,2.4-1.1-.8.4-1.6.8-2.4,1.1,1.2.3,2.4.7,3.4,1.2h0Z"/>
        <path class="st0" d="M49.6,24c2.1,1,3.9,2.3,5.4,3.9s2.6,3.4,3.5,5.4c.8,2,1.2,4.1,1.2,6.1,0,3.2-.9,6.3-2.8,9.1-1.4,2.1-3.2,3.8-5.5,5.1.2,0,.5-.3.8-.4,1.6,0,3.1.2,4.6.3,6.4-4.3,10.5-10.6,10.5-17.6,0-12.9-13.7-23.3-30.5-23.3s-19.3,3.9-24.9,9.8h30.6c2.6,0,5,.5,7.1,1.5h0Z"/>
      </g>
      <path class="st0" d="M16.8,69.2c2.2-3.3,5.2-6.2,8.9-8.7h-9v8.8h0Z"/>
    </g>
    <g>
      <path class="st2" d="M83.2,74.7c-1.5-12.2-14.8-21-31-21.4-1,.6-2.1,1.2-3.3,1.7,4.3,1.1,7.8,3.1,10.3,6s3.8,6.5,3.8,10.9-.6,5.3-1.9,7.4-3,3.9-5.3,5.3c-1.8,1.2-3.9,2.1-6.3,2.8l-.6,8.7-10.7-7.1H14.7c3.8,8,13,13.7,24.4,15.3h0l10.3,7.8v-7.5c.6,0,1.2-.1,1.9-.2,19.4-2.4,33.7-15.7,31.9-29.7h0Z"/>
      <path class="st2" d="M42.4,77.4c1.2-.4,2.2-1,3-1.8s1.5-1.7,2-2.8c.5-1.1.8-2.2.8-3.4s-.2-2.3-.7-3.4-1.1-2-1.9-2.9c-.8-.8-1.7-1.4-2.8-1.9s-2.2-.7-3.5-.7h-13.6c-3.7,2.5-6.8,5.4-8.9,8.7v8.8h21.8c1.3,0,2.6-.2,3.8-.7h0Z"/>
    </g>
  </g>
</svg>